<?xml version="1.0" encoding="UTF-8" standalone="no"?>
<!-- Created with Inkscape (http://www.inkscape.org/) -->

<svg
   version="1.1"
   id="svg1791"
   width="442.23029"
   height="653.18854"
   viewBox="0 0 442.23028 653.18854"
   sodipodi:docname="z1.svg"
   inkscape:version="1.2.2 (732a01da63, 2022-12-09, custom)"
   xmlns:inkscape="http://www.inkscape.org/namespaces/inkscape"
   xmlns:sodipodi="http://sodipodi.sourceforge.net/DTD/sodipodi-0.dtd"
   xmlns="http://www.w3.org/2000/svg"
   xmlns:svg="http://www.w3.org/2000/svg">
  <defs
     id="defs1795" />
  <sodipodi:namedview
     id="namedview1793"
     pagecolor="#ffffff"
     bordercolor="#000000"
     borderopacity="0.25"
     inkscape:showpageshadow="2"
     inkscape:pageopacity="0.0"
     inkscape:pagecheckerboard="0"
     inkscape:deskcolor="#d1d1d1"
     showgrid="false"
     inkscape:zoom="1.0289025"
     inkscape:cx="227.42679"
     inkscape:cy="351.83119"
     inkscape:window-width="1920"
     inkscape:window-height="1031"
     inkscape:window-x="0"
     inkscape:window-y="25"
     inkscape:window-maximized="1"
     inkscape:current-layer="layer1" />
  <g
     inkscape:groupmode="layer"
     id="layer1"
     inkscape:label="Layer 1"
     transform="translate(204.83421,302.09215)">
    <path
       style="fill:#000000;stroke-width:2.11966"
       d="m -181.26295,348.15936 c -2.28708,-5.96003 0.10255,-21.38952 3.37973,-21.82326 1.74872,-0.23144 9.7198,-1.0419 17.71353,-1.80099 l 14.53403,-1.38017 -1.25831,-6.29152 c -0.88171,-4.40854 0.31931,-9.40478 4.01295,-16.69383 6.54719,-12.92026 6.53739,-13.78222 -0.25836,-22.69189 -5.22859,-6.85503 -5.3858,-7.76334 -2.8878,-16.68532 1.453,-5.18959 4.17978,-10.33439 6.05952,-11.4329 1.87974,-1.09851 2.6342,-2.02631 1.67657,-2.06175 -0.95764,-0.0351 -0.24224,-1.56335 1.58973,-3.39534 4.68554,-4.68552 4.14602,-10.20642 -1.6782,-17.17311 -2.755,-3.29543 -5.68762,-8.15927 -6.51692,-10.80854 -1.93361,-6.17705 0.34198,-16.55096 4.55465,-20.76363 1.80427,-1.80425 3.74453,-7.39753 4.31171,-12.42948 0.81786,-7.25605 -0.11606,-11.10657 -4.51353,-18.61038 -6.57308,-11.21613 -6.75918,-14.68758 -1.41804,-26.45211 3.65648,-8.05386 3.7659,-9.89944 1.17015,-19.73947 -3.8226,-14.49078 -7.97714,-20.346164 -15.50429,-21.851582 -3.44037,-0.688087 -8.63121,-1.847387 -11.5352,-2.576229 -4.68539,-1.175965 -5.42382,-0.5311 -6.55757,5.726584 -0.70268,3.878477 -1.42985,14.468357 -1.61594,23.533047 -0.18608,9.06468 -0.961,16.86607 -1.72206,17.33642 -0.76105,0.47037 -5.54347,-1.93851 -10.62758,-5.35304 -5.08413,-3.41455 -10.46682,-6.20826 -11.96154,-6.20826 -3.90399,0 -5.9507,-8.1999 -3.36971,-13.50042 2.56602,-5.26976 7.23399,-16.43372 11.00142,-26.311059 1.45942,-3.826275 2.13522,-7.475109 1.50179,-8.108548 -0.63344,-0.633446 2.0997,-8.286452 6.07365,-17.006712 3.97395,-8.720259 7.22535,-17.519072 7.22535,-19.552947 0,-2.033869 0.83862,-4.604101 1.86361,-5.711622 1.02497,-1.107518 2.95789,-5.442908 4.29538,-9.634208 1.36492,-4.277244 4.73203,-8.85159 7.67485,-10.426549 3.69862,-1.97943 5.24306,-4.589077 5.24306,-8.8592365 0,-4.5474075 1.35258,-6.5674972 5.43712,-8.1204333 8.13067,-3.0912878 9.40046,-2.6056759 9.40046,3.5949511 0,3.1141735 1.47637,7.2935227 3.28084,9.2874387 1.80445,1.9939 4.25355,9.87335 5.44247,17.509872 1.88212,12.0893 1.67044,14.656942 -1.63709,19.857815 -6.55342,10.304847 -22.42204,28.003434 -25.95714,28.950515 -1.86201,0.498847 -0.047,1.011757 4.03334,1.139805 4.08034,0.128036 10.15089,-1.192074 13.49013,-2.933602 7.60274,-3.965112 11.75084,-4.021005 13.22545,-0.178251 2.52269,6.574044 19.91681,6.433325 19.91681,-0.161094 0,-1.785405 1.6061,-6.63077 3.56907,-10.767442 3.34563,-7.050415 3.34563,-7.910512 0,-13.73996 -4.21031,-7.336019 -4.42678,-10.632487 -1.11847,-17.032127 6.72308,-13.005204 6.75148,-13.707628 1.09192,-27.0013242 -2.90646,-6.826971 -2.82496,-8.104026 1.01451,-15.8974191 4.62568,-9.3892357 4.30017,-15.9285577 -1.53808,-30.8992537 l -3.78562,-9.707194 5.84648,-7.665145 c 5.29037,-6.936012 6.38533,-7.458915 11.511534,-5.49726 3.115769,1.192333 15.693353,2.702411 27.95018,3.355775 25.887981,1.379959 26.280797,1.157825 29.910402,-16.915326 1.987405,-9.896057 1.817602,-12.852798 -1.070644,-18.642427 -4.442144,-8.904482 -4.327211,-12.057332 0.806645,-22.127052 5.053762,-9.91268 5.276988,-13.71521 1.127241,-19.20168 -4.008895,-5.30022 -4.060315,-11.76729 -0.134775,-16.95724 4.127376,-5.45687 4.265339,-21.87382 0.196937,-23.43501 -3.550042,-1.36229 -6.740181,-13.43757 -4.06549,-15.3887 3.519636,-2.56747 7.11545,-10.87006 7.11545,-16.42926 0,-3.09285 -2.871888,-10.29077 -6.38197,-15.99539 -6.239172,-10.13995 -6.729748,-14.97421 -2.544214,-25.07114 0.724902,-1.74872 1.360606,-11.00386 1.412693,-20.567 0.103034,-18.9281 0.696335,-19.97426 15.374648,-27.11281 6.253241,-3.04117 7.433927,-3.00412 14.651432,0.45959 9.5049547,4.56147 14.1161181,10.50863 20.6910621,26.6859 5.1451169,12.6593 7.6680559,12.35613 7.6680559,-0.92142 0,-12.14812 16.267291,-27.29632 29.312878,-27.29632 7.430238,0 14.126883,5.88088 18.62854,16.35925 3.71951,8.65784 3.701321,16.50786 -0.07186,30.994 -2.622158,10.06715 -2.596576,13.13599 0.202229,24.24658 3.046964,12.09588 2.986216,13.21373 -1.237176,22.76137 -5.479268,12.38682 -5.489204,14.1585 -0.15792,28.18504 4.258068,11.20311 4.259022,11.33667 0.17507,24.55865 -3.787612,12.26281 -3.858727,14.04601 -0.916559,22.98292 2.981188,9.05553 2.907848,10.32566 -1.122549,19.43701 -4.010282,9.065905 -4.085085,10.291834 -1.068605,17.511311 2.481123,5.938142 2.70356,8.948077 0.9463,12.804829 -3.67635,8.068721 -2.925103,17.524221 1.412154,17.773831 13.364549,0.769127 45.434301,-0.05241 49.243141,-1.260973 3.06756,-0.9736 6.00856,-0.165148 8.89837,2.446192 3.93516,3.555935 4.1928,5.491807 2.91694,21.917517 -1.12397,14.470175 -0.71941,19.376819 2.05503,24.9242769 3.69159,7.3812236 2.95342,15.3756556 -2.36013,25.5603061 -3.94892,7.569029 -3.77697,10.146627 1.38865,20.817415 l 4.38143,9.0508 -4.40922,9.967782 c -3.95282,8.935981 -4.07722,10.334608 -1.20195,13.511779 1.76402,1.949195 3.20729,6.091974 3.20729,9.206151 0,5.570597 0.22859,5.662146 14.14077,5.662146 9.90739,0 15.24756,-1.001642 17.83783,-3.345788 3.26742,-2.956984 4.27209,-2.9867 8.64551,-0.25575 4.99309,3.117886 20.84588,2.653894 20.84588,-0.610129 0,-2.663048 -6.02118,-6.845551 -8.0499,-5.591735 -1.03217,0.637883 -5.05305,-2.117383 -8.93532,-6.122874 -5.61422,-5.792421 -7.17103,-9.273319 -7.6078,-17.010547 -0.30206,-5.350328 -1.47603,-10.859058 -2.60883,-12.241642 -2.02022,-2.465603 -3.20096,-8.393131 -2.7174,-13.641959 0.13421,-1.457259 2.15175,-2.649559 4.48337,-2.649559 5.19663,0 5.44535,-3.632682 0.61417,-8.971044 -3.12728,-3.455602 -3.20004,-4.2745538 -0.52991,-5.9634853 5.32295,-3.3669085 12.26228,-2.2927154 13.66115,2.1147575 0.72225,2.2755918 5.7942,8.7692398 11.27103,14.4303288 10.64791,11.006154 42.81249,59.99676 42.81249,65.208673 0,4.143608 -4.03559,3.970769 -8.84163,-0.378622 -3.6173,-3.273595 -3.8763,-3.256022 -3.8763,0.263168 0,2.074129 3.50652,11.521954 7.79229,20.995164 8.10579,17.91699 10.49721,34.74819 5.62951,39.62152 -2.99679,3.00024 -23.7462,4.36328 -28.4414,1.86832 -3.47492,-1.84649 -4.31137,-8.74283 -5.83053,-48.07156 -0.29682,-7.68358 -1.11134,-9.160131 -5.6867,-10.308475 -5.7652,-1.446962 -16.37041,2.070162 -20.21675,6.704705 -1.76349,2.12488 -1.75046,4.78115 0.0503,10.23735 2.1151,6.40882 1.72614,9.13143 -2.98804,20.91497 -2.98078,7.45087 -5.41963,14.74799 -5.41963,16.21581 0,1.46782 3.33845,8.63846 7.41879,15.9348 8.83319,15.79524 9.05849,19.30221 2.11965,32.99535 -6.59933,13.02316 -6.59653,17.26077 0.0212,31.47539 6.64701,14.27852 6.64268,20.64387 -0.0212,30.44992 -6.39188,9.4065 -6.43287,10.20915 -1.05983,20.74122 5.02257,9.84503 5.28356,16.9623 1.06596,29.06822 -4.93286,14.15896 -3.62594,15.20851 19.79893,15.90009 l 20.46838,0.60423 0.63106,13.24785 0.63106,13.24784 H 17.159625 c -166.178455,0 -197.473295,-0.46321 -198.422575,-2.937 z m 103.65932,-26.55745 c 3.530542,-3.54637 3.164534,-34.7911 -0.458706,-39.15683 -2.894709,-3.48791 -2.382842,-12.02938 1.422784,-23.74151 1.681948,-5.1763 1.306386,-8.28236 -1.794066,-14.83758 -5.20362,-11.00201 -5.047001,-19.8285 0.537471,-30.29084 4.596288,-8.61097 4.597134,-8.6398 0.618678,-20.86694 -2.191195,-6.73423 -5.216219,-13.74993 -6.722293,-15.59044 -3.886361,-4.74934 -3.419272,-18.88358 0.777298,-23.52075 3.318077,-3.66641 3.015257,-4.3607 -5.388382,-12.35492 -4.897219,-4.6586 -9.377679,-8.47018 -9.956607,-8.47018 -0.578929,0 -6.023367,-4.8276 -12.098757,-10.728 -11.06388,-10.74516 -22.14257,-18.09579 -24.18909,-16.04926 -0.59993,0.59993 0.12354,5.82928 1.60789,11.62071 2.35054,9.17132 2.21141,12.07922 -1.07848,22.53857 l -3.77719,12.00871 6.87491,9.57314 c 6.39535,8.90537 6.77858,10.39295 5.49366,21.32549 -0.942,8.01516 -3.07084,13.76031 -6.69451,18.06681 -5.80082,6.89388 -5.46623,11.54371 1.46976,20.42527 6.03509,7.72795 5.27244,22.74634 -1.67423,32.96928 l -5.62194,8.27343 3.80478,9.70576 c 5.96905,15.2266 6.32023,22.41913 1.47902,30.29204 -4.45085,7.23816 -4.22675,17.96921 0.44692,21.40044 3.61116,2.65116 51.973503,0.36836 54.921031,-2.5924 z m 239.75864,-6.00977 c 0.7509,-4.37179 2.44828,-12.402 3.77196,-17.84489 2.06599,-8.4952 1.88543,-10.69175 -1.27535,-15.51572 -5.03509,-7.68453 -4.84311,-15.11835 0.70442,-27.27737 4.22136,-9.25229 4.44524,-11.34827 2.20824,-20.67317 -1.36917,-5.70735 -3.3474,-10.90727 -4.39608,-11.55537 -3.01351,-1.86246 -2.22097,-18.73515 1.27281,-27.09695 3.95067,-9.45531 4.06266,-18.23702 0.30218,-23.70141 -1.58251,-2.29957 -4.0011,-8.95026 -5.37464,-14.77931 -2.17935,-9.24877 -1.95456,-12.21767 1.76533,-23.3162 5.1656,-15.41182 5.45205,-22.98812 1.03605,-27.4041 -4.41531,-4.41533 -6.32249,-4.22274 -19.65745,1.98505 -11.44963,5.33011 -40.6013,31.27735 -40.6013,36.13829 0,1.43274 -1.43077,3.15398 -3.179484,3.82505 -1.87918,0.7211 -3.179482,3.90487 -3.179482,7.78491 0,3.61066 -0.993462,8.42114 -2.207707,10.68997 -1.676097,3.13181 -1.165683,6.48081 2.119656,13.90786 5.454237,12.33018 5.479197,19.92571 0.08796,26.77944 -5.845286,7.43109 -5.420804,17.54225 1.059829,25.24403 8.235108,9.78687 7.048468,27.84209 -2.454436,37.34497 -3.582613,3.58264 -3.705554,15.6694 -0.195206,19.18548 1.712515,1.71527 2.532987,8.23715 2.319961,18.441 l -0.329473,15.78714 h 32.418472 32.41844 z m -204.890631,-3.17949 c 16.360671,-24.35188 27.327129,-66.25349 25.34718,-96.84871 -1.04091,-16.08473 0.403793,-31.82291 3.951612,-43.04849 1.018296,-3.22194 -0.343384,-3.7094 -10.362198,-3.7094 -8.279503,0 -16.764476,-2.10842 -30.067336,-7.4714 -14.345037,-5.78312 -19.194906,-6.9219 -21.462945,-5.03959 -4.613298,3.82869 -3.462748,13.12419 3.42715,27.68816 7.330944,15.49629 7.942589,23.21618 2.466246,31.12802 -6.277048,9.06865 -6.861723,12.81732 -3.292929,21.11234 6.617354,15.38076 7.085745,19.21471 3.522046,28.83005 -3.363539,9.07526 -3.329618,9.33738 2.49294,19.27286 5.952124,10.15649 6.464007,17.96121 2.120146,32.32547 -1.330803,4.40072 -0.775883,4.76923 7.181763,4.76923 7.783399,0 9.213931,-0.87809 14.676325,-9.00854 z m 128.178287,1.05983 c 4.237025,-9.83553 3.332482,-18.76632 -2.445974,-24.14977 -5.731209,-5.33943 -5.551145,-8.6033 0.897441,-16.26702 2.914525,-3.46373 5.299138,-7.8292 5.299138,-9.70109 0,-1.87186 0.953843,-3.4034 2.119653,-3.4034 1.165811,0 2.110396,-3.57692 2.099075,-7.94871 -0.01465,-5.86993 -1.955362,-10.38265 -7.418791,-17.25553 -7.523675,-9.46466 -8.648423,-12.04061 -5.808471,-13.30283 2.569512,-1.14198 11.128187,-19.87795 11.128187,-24.36089 0,-2.26222 -0.83862,-5.01928 -1.8636,-6.1268 -4.288783,-4.63418 -6.59677,-16.94291 -4.528874,-24.15319 1.144356,-3.99018 1.608077,-7.72745 1.03047,-8.30506 -0.577606,-0.57761 -4.427621,0.56038 -8.555609,2.52887 -6.295666,3.0022 -40.284032,10.28635 -49.142116,10.53179 -3.195564,0.0886 -3.179348,-0.18296 -0.422473,7.06822 1.224908,3.22173 3.648139,23.55301 5.384984,45.18065 3.170751,39.48313 4.286664,46.13144 11.458217,68.26617 7.422647,22.90961 13.468114,29.3473 27.559326,29.3473 9.285526,0 9.960086,-0.40592 13.20943,-7.94871 z M -81.12011,79.635317 c 8.773586,-3.996842 9.949544,-4.090557 13.29845,-1.059828 5.237037,4.739463 5.817691,4.324877 7.348214,-5.246464 0.753826,-4.714178 2.466424,-10.325898 3.805756,-12.470524 1.954916,-3.130325 1.529057,-5.435027 -2.15952,-11.68667 -5.444896,-9.228447 -5.665695,-12.942592 -1.379275,-23.201465 3.199058,-7.656405 2.540421,-16.6475993 -1.605463,-21.9167673 -1.963152,-2.4950239 -1.313532,-13.3999048 1.624865,-27.2765347 1.236476,-5.839307 0.399425,-7.40616 -7.626813,-14.27633 -5.202692,-4.453277 -12.23163,-8.230272 -16.619521,-8.930416 -4.182084,-0.667314 -9.685057,-1.637138 -12.228847,-2.155206 -6.948156,-1.414988 -8.026656,5.508262 -2.507557,16.096911 4.201372,8.060517 4.411998,9.861322 2.069946,17.698061 -4.787955,16.02106 -5.044025,18.5396206 -2.38932,23.5000115 2.977006,5.5625795 1.99766,17.9216435 -2.221175,28.0307225 -2.35802,5.650237 -2.35516,7.652377 0.0173,12.085357 2.010585,3.75677 2.438186,9.269654 1.45977,18.819613 -0.76107,7.428542 -0.73856,14.151663 0.0503,14.940254 2.559485,2.559483 9.236039,1.526045 19.063146,-2.950725 z m 65.132223,1.541327 c 3.697108,-2.8358 7.6205498,-28.528579 8.5869004,-56.231558 0.3509349,-10.060928 1.309033,-19.8662885 2.1290667,-21.789692 1.566591,-3.67438355 -0.3294068,-4.5400503 -22.6281351,-10.3311771 -5.527921,-1.4356431 -12.49244,-4.8731289 -15.476706,-7.6388419 -6.760039,-6.264987 -9.098673,-6.318327 -11.376071,-0.259392 -1.25526,3.339546 -0.599389,7.126649 2.187972,12.6334795 4.838947,9.5600805 5.014122,16.9626105 0.700958,29.6210435 -3.093045,9.077594 -3.038647,10.033597 0.956314,16.804921 3.502693,5.93698 3.895688,8.647363 2.270351,15.658373 -1.081062,4.663239 -1.988317,11.518184 -2.016134,15.233197 -0.04574,6.078361 0.639072,6.823717 6.838316,7.44516 15.535046,1.557312 24.800699,1.17588 27.827168,-1.145547 z m 86.846336,-3.516653 c 0.699571,-3.497941 0.345106,-8.797694 -0.787705,-11.777226 -1.522362,-4.004095 -1.200127,-7.079561 1.235163,-11.788903 2.800469,-5.415467 2.907809,-8.10109 0.715364,-17.897921 -1.418732,-6.33953 -3.357706,-11.526411 -4.308854,-11.526411 -2.290207,0 0.116382,-12.24068 3.875722,-19.7127458 3.285572,-6.5304831 2.169083,-12.5660762 -3.719868,-20.1092412 l -3.784598,-4.847704 -7.342868,6.447128 c -7.361136,6.4631443 -21.843273,12.78671243 -29.284024,12.78671243 -2.185045,0 -4.057568,1.19229992 -4.161159,2.64957527 -1.09194,15.3602413 3.575267,59.9529373 7.446414,71.1466683 3.040114,8.790711 6.867104,10.317334 26.92137,10.739164 11.626179,0.244489 11.954727,0.0924 13.195043,-6.109096 z m 16.523873,0.781364 c 3.534505,-3.198686 4.219022,-3.198686 9.100844,0 5.723634,3.750286 22.385274,4.769693 22.385274,1.369615 0,-1.149086 -1.15802,-6.418884 -2.57335,-11.710688 -2.24881,-8.408034 -2.08629,-10.525868 1.28858,-16.792628 3.28765,-6.10479 3.48972,-8.298951 1.35887,-14.755466 -1.37668,-4.171374 -3.27932,-8.064073 -4.22812,-8.650457 -1.88793,-1.166812 3.13999,-17.473405 6.71642,-21.7827433 3.61118,-4.351203 0.47944,-19.9492047 -4.80576,-23.9358647 l -4.6564,-3.512328 4.26301,-11.855514 c 3.6875,-10.255114 3.86869,-12.418443 1.34219,-16.025553 -2.69192,-3.843275 -3.71069,-3.961545 -13.00114,-1.509427 -12.647592,3.338195 -21.625417,7.938878 -26.929827,13.800175 -3.992946,4.412177 -4.009326,4.975496 -0.524945,18.052089 4.414923,16.5686876 4.506472,23.7253193 0.404125,31.59126 -3.934927,7.544857 -3.914751,11.837918 0.08054,17.120059 3.538107,4.677781 4.192552,20.452827 0.981738,23.663635 -2.721424,2.721337 -0.194016,28.392688 2.795228,28.392688 1.199387,0 3.900588,-1.556482 6.002697,-3.458852 z M -7.9323373,-55.508415 C 3.9112799,-56.068804 6.732242,-60.248414 6.421243,-76.775091 6.275579,-84.517178 6.2207364,-114.22084 6.299425,-142.78319 c 0.2938038,-106.6395 -1.5226411,-122.22596 -16.2417749,-139.3673 -7.4610581,-8.68884 -10.6718051,-8.64558 -19.3035771,0.26016 -6.679667,6.89166 -6.842927,7.46909 -4.535014,16.04001 1.804779,6.70247 1.770508,11.67747 -0.139234,20.21117 -2.342551,10.46759 -2.173871,11.90182 2.239567,19.04291 4.199142,6.79436 4.602089,9.42966 3.351935,21.92178 -0.781536,7.80947 -1.34445,17.29904 -1.250927,21.08792 0.543824,22.03155 0.383062,27.66752 -0.959388,33.63409 -1.01136,4.49498 -0.357096,8.79336 2.045851,13.44006 4.00575,7.74628 2.807714,21.47251 -2.239767,25.66155 -3.601861,2.98928 -4.010206,13.834045 -0.600259,15.94151 1.661611,1.026941 2.038763,7.276318 1.210588,20.059287 -0.661597,10.212224 -0.843664,18.926951 -0.404523,19.366092 0.768964,0.768964 5.944379,0.763349 22.5947769,-0.02458 z m 53.5729553,-0.709179 c 4.188311,-1.908298 5.398866,-4.019019 5.398866,-9.413342 0,-3.82441 0.793156,-7.443663 1.76256,-8.042775 1.858679,-1.148726 1.497217,-10.338193 -0.868595,-22.083169 -0.989051,-4.91011 -0.271117,-9.14902 2.38487,-14.08087 3.550395,-6.59268 3.580474,-7.82732 0.458177,-18.80291 -3.170348,-11.14453 -3.127742,-12.17936 0.830905,-20.18052 3.54911,-7.17336 3.827711,-9.71455 1.864407,-17.00573 -1.269546,-4.71465 -3.236162,-9.1456 -4.370283,-9.84652 -2.5094,-1.55089 -2.749616,-16.34294 -0.310994,-19.14728 3.948494,-4.54059 7.213629,-19.86759 5.690637,-26.71263 -2.190193,-9.8439 -1.638128,-28.59314 0.986342,-33.49702 1.565451,-2.92506 1.279231,-7.54785 -1.01199,-16.34444 -6.478659,-24.87328 -17.698945,-25.76964 -28.669429,-2.29034 -11.326906,24.24209 -12.660314,38.18158 -12.660718,132.35555 l -3.64e-4,85.199979 10.06836,0.793884 c 5.537597,0.436651 10.738873,0.965853 11.558371,1.175974 0.819505,0.21004 3.9195,-0.724886 6.888878,-2.077841 z m 49.911615,-53.430276 c 0,-5.00184 18.689127,-31.0268 27.668427,-38.5288 4.74474,-3.9641 12.09344,-7.75555 16.42478,-8.47407 4.31108,-0.71518 9.03064,-1.67299 10.4879,-2.12848 3.73055,-1.16603 3.30895,-11.4395 -0.52991,-12.91261 -1.74872,-0.67104 -3.17948,-2.44675 -3.17948,-3.946 0,-4.49513 6.6098,-5.62235 12.05339,-2.05556 9.46271,6.2002 14.6218,1.72319 13.62402,-11.82277 -0.58052,-7.88124 8.10102,-19.36189 18.60412,-24.60238 5.03344,-2.51143 10.19689,-5.61142 11.47435,-6.88889 1.27745,-1.27744 4.93712,-2.32263 8.13258,-2.32263 3.19547,0 6.39945,-0.95385 7.11997,-2.11965 0.72051,-1.16582 3.63834,-2.11966 6.48406,-2.11966 6.00328,0 7.17137,6.3019 1.96842,10.61996 -2.43826,2.02356 -2.62983,3.35423 -0.8003,5.55868 1.80279,2.17223 1.75531,3.68149 -0.18951,6.0249 -2.13909,2.57743 -1.62618,3.56801 2.91993,5.63937 10.61818,4.83797 5.56596,24.40388 -9.10161,35.24807 -3.52468,2.60588 -7.9442,4.73796 -9.82122,4.73796 -5.19006,0 -3.01383,8.40235 3.41438,13.1828 3.00985,2.23832 9.68676,4.37861 14.83758,4.75621 7.77399,0.56985 9.48503,1.48177 10.07074,5.36711 0.85023,5.64004 -1.47189,15.84776 -3.2098,14.10985 -0.68093,-0.68094 -3.08836,1.11418 -5.34984,3.98918 -2.26146,2.875 -5.47328,5.22725 -7.13738,5.22725 -1.6641,0 -3.02564,1.43078 -3.02564,3.1795 0,1.7487 -0.82709,3.17948 -1.83797,3.17948 -1.76601,0 -12.99961,-15.60675 -12.99961,-18.06025 0,-2.13559 -7.32089,-8.7813 -11.21849,-10.18385 -2.82412,-1.01626 -4.90446,0.50514 -8.10261,5.92561 -2.36662,4.01111 -6.14136,7.87642 -8.38832,8.58957 -2.24698,0.71317 -4.08541,2.03313 -4.08541,2.93324 0,1.96873 -10.75014,7.11104 -12.08185,5.77934 -0.51468,-0.51468 -3.2152,0.24681 -6.00119,1.69224 -2.78599,1.44539 -7.24933,2.38717 -9.91852,2.09284 -2.6692,-0.2943 -6.04538,-0.61464 -7.50265,-0.71176 -1.45726,-0.0972 -2.64956,-1.54405 -2.64956,-3.21534 0,-6.25061 -13.37306,-4.73726 -28.05667,3.17504 -5.32264,2.86811 -10.09712,2.43522 -10.09712,-0.9155 z m -273.435453,-73.40875 c -1.68053,-2.33162 -4.26482,-4.23932 -5.74283,-4.23932 -3.70173,0 -11.21441,-6.70551 -11.21441,-10.00952 0,-1.48962 -0.95201,-2.7084 -2.1156,-2.7084 -1.19858,0 -1.76862,-3.85204 -1.31513,-8.8868 l 0.80048,-8.88679 14.56297,-2.91437 c 13.91124,-2.78394 24.10142,-7.28856 24.10142,-10.6541 0,-0.86305 -4.71011,-2.68804 -10.46693,-4.05553 -12.04911,-2.86217 -22.73513,-9.05507 -19.29428,-11.18164 1.36805,-0.8455 0.14162,-2.56111 -3.053,-4.27084 -7.4032,-3.96207 -6.94441,-9.59376 2.06884,-25.39506 1.95436,-3.42623 2.23602,-5.70089 0.81469,-6.57932 -2.83169,-1.75008 -0.0791,-16.70893 3.14098,-17.06984 1.32751,-0.14878 4.79829,-0.61787 7.7128,-1.04241 12.35474,-1.79965 24.93068,-1.4525 32.85465,0.9069 13.71395,4.08343 14.76117,5.35142 14.24361,17.24647 -0.49023,11.26737 2.54592,14.12272 8.01276,7.53559 4.28761,-5.16624 19.0769,-2.54655 19.0769,3.37915 0,1.19359 -0.94585,1.58561 -2.10189,0.87114 -2.65885,-1.64326 -13.32162,8.8295 -12.25319,12.03482 1.53954,4.6186 9.44604,5.84437 13.59155,2.10714 2.73011,-2.46123 6.225074,-3.22867 11.361795,-2.49484 9.240316,1.32004 11.640721,2.91972 22.464217,14.97071 8.36791,9.31693 18.044942,32.13252 14.943969,35.2335 -0.745883,0.74588 -3.789658,0.24734 -6.763962,-1.10784 -7.352201,-3.34988 -12.99073,-3.09643 -14.427806,0.64856 -2.144495,5.58848 -15.116198,9.31841 -30.101673,8.65558 -7.77896,-0.34412 -14.75244,-1.58208 -15.49664,-2.75108 -0.74421,-1.16899 -4.35609,-2.77669 -8.02641,-3.57265 -4.38855,-0.95174 -7.09087,-3.03862 -7.89291,-6.09537 -1.21837,-4.6435 -1.22521,-4.64254 -6.83319,0.95783 -3.08749,3.0833 -7.64335,11.60911 -10.12416,18.94629 -2.4808,7.33718 -5.80294,13.7504 -7.38256,14.25161 -2.1011,0.66669 -2.47165,-0.35009 -1.38048,-3.78805 l 1.49151,-4.69934 -4.44856,4.44856 c -5.51723,5.51723 -6.9616,5.54519 -10.80753,0.20926 z"
       id="path1909" />
  </g>
</svg>
